SRRun01_grf
version=1
nRows=34
nColumns=19
inDegrees=no
endheader
time	ground_force_r_vx	ground_force_r_vy	ground_force_r_vz	ground_force_r_px	ground_force_r_py	ground_force_r_pz	ground_force_r_mx	ground_force_r_my	ground_force_r_mz	ground_force_l_vx	ground_force_l_vy	ground_force_l_vz	ground_force_l_px	ground_force_l_py	ground_force_l_pz	ground_force_l_mx	ground_force_l_my	ground_force_l_mz
    144.99800000	     25.75627862	   1977.40064091	    -21.16609886	      0.83509926	      0.00000000	     -0.30777867	      0.00003467	     -3.97175703	      0.00006887	      0.00000000	      0.00000000	      0.00000000	      0.00000000	      0.00000000	      0.00000000	      0.00000000	      0.00000000	      0.00000000
    144.99900000	     29.70851762	   1970.91925538	    -19.34222106	      0.83289227	      0.00000000	     -0.30772041	      0.00003304	     -4.84864180	      0.00007089	      0.00000000	      0.00000000	      0.00000000	      0.00000000	      0.00000000	      0.00000000	      0.00000000	      0.00000000	      0.00000000
    145.00000000	     34.52411176	   1964.17117259	    -16.90382064	      0.83072475	      0.00000000	     -0.30764884	      0.00003143	     -6.37358049	      0.00007357	      0.00000000	      0.00000000	      0.00000000	      0.00000000	      0.00000000	      0.00000000	      0.00000000	      0.00000000	      0.00000000
    145.00100000	     40.10791943	   1957.13798522	    -14.00647590	      0.82858145	      0.00000000	     -0.30756306	      0.00002987	     -8.34175677	      0.00007664	      0.00000000	      0.00000000	      0.00000000	      0.00000000	      0.00000000	      0.00000000	      0.00000000	      0.00000000	      0.00000000
    145.00200000	     46.27394726	   1949.79531975	    -10.86523839	      0.82644716	      0.00000000	     -0.30746359	      0.00002841	    -10.51750461	      0.00007977	      0.00000000	      0.00000000	      0.00000000	      0.00000000	      0.00000000	      0.00000000	      0.00000000	      0.00000000	      0.00000000
    145.00300000	     52.76578284	   1942.11854744	     -7.73483338	      0.82431028	      0.00000000	     -0.30735218	      0.00002707	    -12.65571591	      0.00008265	      0.00000000	      0.00000000	      0.00000000	      0.00000000	      0.00000000	      0.00000000	      0.00000000	      0.00000000	      0.00000000
    145.00400000	     59.28325605	   1934.08675968	     -4.88588235	      0.82216501	      0.00000000	     -0.30723168	      0.00002586	    -14.52361064	      0.00008498	      0.00000000	      0.00000000	      0.00000000	      0.00000000	      0.00000000	      0.00000000	      0.00000000	      0.00000000	      0.00000000
    145.00500000	     65.51278583	   1925.68457316	     -2.57953800	      0.82001180	      0.00000000	     -0.30710595	      0.00002479	    -15.92097779	      0.00008651	      0.00000000	      0.00000000	      0.00000000	      0.00000000	      0.00000000	      0.00000000	      0.00000000	      0.00000000	      0.00000000
    145.00600000	     71.15878061	   1916.90199551	     -1.04279998	      0.81785603	      0.00000000	     -0.30697985	      0.00002387	    -16.69707159	      0.00008708	      0.00000000	      0.00000000	      0.00000000	      0.00000000	      0.00000000	      0.00000000	      0.00000000	      0.00000000	      0.00000000
    145.00700000	     75.97350860	   1907.73299161	     -0.44668130	      0.81570538	      0.00000000	     -0.30685904	      0.00002310	    -16.76266901	      0.00008661	      0.00000000	      0.00000000	      0.00000000	      0.00000000	      0.00000000	      0.00000000	      0.00000000	      0.00000000	      0.00000000
    145.00800000	     79.78298418	   1898.17356586	     -0.88922801	      0.81356679	      0.00000000	     -0.30674974	      0.00002247	    -16.09630045	      0.00008510	      0.00000000	      0.00000000	      0.00000000	      0.00000000	      0.00000000	      0.00000000	      0.00000000	      0.00000000	      0.00000000
    145.00900000	     82.50661018	   1888.22024951	     -2.38499292	      0.81144361	      0.00000000	     -0.30665822	      0.00002197	    -14.74426910	      0.00008269	      0.00000000	      0.00000000	      0.00000000	      0.00000000	      0.00000000	      0.00000000	      0.00000000	      0.00000000	      0.00000000
    145.01000000	     84.16863708	   1877.86992232	     -4.86187919	      0.80933386	      0.00000000	     -0.30659021	      0.00002161	    -12.81467059	      0.00007957	      0.00000000	      0.00000000	      0.00000000	      0.00000000	      0.00000000	      0.00000000	      0.00000000	      0.00000000	      0.00000000
    145.01100000	     84.90002530	   1867.12174960	     -8.16544977	      0.80722998	      0.00000000	     -0.30655018	      0.00002138	    -10.46612944	      0.00007600	      0.00000000	      0.00000000	      0.00000000	      0.00000000	      0.00000000	      0.00000000	      0.00000000	      0.00000000	      0.00000000
    145.01200000	     84.93001154	   1855.98146227	    -12.07007218	      0.80512045	      0.00000000	     -0.30654067	      0.00002126	     -7.89239156	      0.00007228	      0.00000000	      0.00000000	      0.00000000	      0.00000000	      0.00000000	      0.00000000	      0.00000000	      0.00000000	      0.00000000
    145.01300000	     84.56753196	   1844.46723464	    -16.29577978	      0.80299287	      0.00000000	     -0.30656182	      0.00002126	     -5.30432688	      0.00006874	      0.00000000	      0.00000000	      0.00000000	      0.00000000	      0.00000000	      0.00000000	      0.00000000	      0.00000000	      0.00000000
    145.01400000	     84.17363527	   1832.61534768	    -20.52948535	      0.80083767	      0.00000000	     -0.30661109	      0.00002136	     -2.91123068	      0.00006564	      0.00000000	      0.00000000	      0.00000000	      0.00000000	      0.00000000	      0.00000000	      0.00000000	      0.00000000	      0.00000000
    145.01500000	     84.12709692	   1820.48327334	    -24.44905761	      0.79865136	      0.00000000	     -0.30668337	      0.00002155	     -0.90336179	      0.00006320	      0.00000000	      0.00000000	      0.00000000	      0.00000000	      0.00000000	      0.00000000	      0.00000000	      0.00000000	      0.00000000
    145.01600000	     84.78646543	   1808.14825405	    -27.74859149	      0.79643841	      0.00000000	     -0.30677152	      0.00002180	      0.56267351	      0.00006158	      0.00000000	      0.00000000	      0.00000000	      0.00000000	      0.00000000	      0.00000000	      0.00000000	      0.00000000	      0.00000000
    145.01700000	     86.45251394	   1795.70075349	    -30.16289743	      0.79421095	      0.00000000	     -0.30686723	      0.00002210	      1.37465811	      0.00006081	      0.00000000	      0.00000000	      0.00000000	      0.00000000	      0.00000000	      0.00000000	      0.00000000	      0.00000000	      0.00000000
    145.01800000	     89.33541018	   1783.23366073	    -31.48895998	      0.79198641	      0.00000000	     -0.30696229	      0.00002243	      1.47118386	      0.00006084	      0.00000000	      0.00000000	      0.00000000	      0.00000000	      0.00000000	      0.00000000	      0.00000000	      0.00000000	      0.00000000
    145.01900000	     93.53074235	   1770.82925724	    -31.60216946	      0.78978340	      0.00000000	     -0.30704978	      0.00002280	      0.84381150	      0.00006153	      0.00000000	      0.00000000	      0.00000000	      0.00000000	      0.00000000	      0.00000000	      0.00000000	      0.00000000	      0.00000000
    145.02000000	     99.00771126	   1758.54647213	    -30.46565696	      0.78761687	      0.00000000	     -0.30712522	      0.00002319	     -0.46461521	      0.00006268	      0.00000000	      0.00000000	      0.00000000	      0.00000000	      0.00000000	      0.00000000	      0.00000000	      0.00000000	      0.00000000
    145.02100000	    105.61134570	   1746.41087492	    -28.13187329	      0.78549345	      0.00000000	     -0.30718739	      0.00002361	     -2.36487824	      0.00006404	      0.00000000	      0.00000000	      0.00000000	      0.00000000	      0.00000000	      0.00000000	      0.00000000	      0.00000000	      0.00000000
    145.02200000	    113.07877506	   1734.40933317	    -24.73630222	      0.78340828	      0.00000000	     -0.30723861	      0.00002406	     -4.72879805	      0.00006538	      0.00000000	      0.00000000	      0.00000000	      0.00000000	      0.00000000	      0.00000000	      0.00000000	      0.00000000	      0.00000000
    145.02300000	    121.06774756	   1722.49045386	    -20.48376347	      0.78134409	      0.00000000	     -0.30728457	      0.00002451	     -7.39837810	      0.00006648	      0.00000000	      0.00000000	      0.00000000	      0.00000000	      0.00000000	      0.00000000	      0.00000000	      0.00000000	      0.00000000
    145.02400000	    129.19397104	   1710.57093757	    -15.62830193	      0.77927318	      0.00000000	     -0.30733345	      0.00002497	    -10.19591871	      0.00006718	      0.00000000	      0.00000000	      0.00000000	      0.00000000	      0.00000000	      0.00000000	      0.00000000	      0.00000000	      0.00000000
    145.02500000	    137.07266043	   1698.54687422	    -10.44834704	      0.77716199	      0.00000000	     -0.30739461	      0.00002542	    -12.93451866	      0.00006737	      0.00000000	      0.00000000	      0.00000000	      0.00000000	      0.00000000	      0.00000000	      0.00000000	      0.00000000	      0.00000000
    145.02600000	    144.35910972	   1686.30796749	     -5.21962945	      0.77497741	      0.00000000	     -0.30747682	      0.00002583	    -15.42869287	      0.00006698	      0.00000000	      0.00000000	      0.00000000	      0.00000000	      0.00000000	      0.00000000	      0.00000000	      0.00000000	      0.00000000
    145.02700000	    150.78331722	   1673.75201818	     -0.18897670	      0.77269338	      0.00000000	     -0.30758659	      0.00002619	    -17.50504434	      0.00006601	      0.00000000	      0.00000000	      0.00000000	      0.00000000	      0.00000000	      0.00000000	      0.00000000	      0.00000000	      0.00000000
    145.02800000	    156.17463093	   1660.79700341	      4.44780102	      0.77029623	      0.00000000	     -0.30772680	      0.00002647	    -19.01289729	      0.00006450	      0.00000000	      0.00000000	      0.00000000	      0.00000000	      0.00000000	      0.00000000	      0.00000000	      0.00000000	      0.00000000
    145.02900000	    160.47383877	   1647.38877904	      8.56131001	      0.76778763	      0.00000000	     -0.30789609	      0.00002667	    -19.83456587	      0.00006255	      0.00000000	      0.00000000	      0.00000000	      0.00000000	      0.00000000	      0.00000000	      0.00000000	      0.00000000	      0.00000000
    145.03000000	    163.73188698	   1633.50357164	     12.09568073	      0.76518436	      0.00000000	     -0.30808909	      0.00002677	    -19.89462747	      0.00006025	      0.00000000	      0.00000000	      0.00000000	      0.00000000	      0.00000000	      0.00000000	      0.00000000	      0.00000000	      0.00000000
    145.03100000	    166.09622918	   1619.14559328	     15.06698856	      0.76251513	      0.00000000	     -0.30829733	      0.00002678	    -19.16732580	      0.00005777	      0.00000000	      0.00000000	      0.00000000	      0.00000000	      0.00000000	      0.00000000	      0.00000000	      0.00000000	      0.00000000
